<?xml version="1.0" encoding="UTF-8" standalone="no"?>
<!-- Created with Inkscape (http://www.inkscape.org/) -->

<svg
   xmlns:dc="http://purl.org/dc/elements/1.1/"
   xmlns:cc="http://creativecommons.org/ns#"
   xmlns:rdf="http://www.w3.org/1999/02/22-rdf-syntax-ns#"
   xmlns:svg="http://www.w3.org/2000/svg"
   xmlns="http://www.w3.org/2000/svg"
   xmlns:sodipodi="http://sodipodi.sourceforge.net/DTD/sodipodi-0.dtd"
   xmlns:inkscape="http://www.inkscape.org/namespaces/inkscape"
   id="svg3387"
   version="1.1"
   inkscape:version="0.91 r13725"
   width="1000"
   height="1000"
   viewBox="0 0 1000 999.99998"
   sodipodi:docname="favicon.svg"
   inkscape:export-xdpi="35.450001"
   inkscape:export-ydpi="35.450001">
  <metadata
     id="metadata3393">
    <rdf:RDF>
      <cc:Work
         rdf:about="">
        <dc:format>image/svg+xml</dc:format>
        <dc:type
           rdf:resource="http://purl.org/dc/dcmitype/StillImage" />
        <dc:title></dc:title>
      </cc:Work>
    </rdf:RDF>
  </metadata>
  <defs
     id="defs3391">
    <clipPath
       clipPathUnits="userSpaceOnUse"
       id="clipPath4553">
      <rect
         style="display:inline;fill:#ff0000;fill-opacity:1;stroke:none"
         id="rect4555"
         width="81.25"
         height="81.25"
         x="0.15370265"
         y="0.10757467"
         inkscape:export-xdpi="35.450001"
         inkscape:export-ydpi="35.450001" />
    </clipPath>
    <clipPath
       clipPathUnits="userSpaceOnUse"
       id="clipPath4683">
      <rect
         style="display:inline;fill:#000000;fill-opacity:1;stroke:none"
         id="rect4685"
         width="81.25"
         height="81.25"
         x="-3.6618958e-10"
         y="0"
         inkscape:export-xdpi="35.450001"
         inkscape:export-ydpi="35.450001" />
    </clipPath>
  </defs>
  <sodipodi:namedview
     pagecolor="#ffffff"
     bordercolor="#666666"
     borderopacity="1"
     objecttolerance="10"
     gridtolerance="10"
     guidetolerance="10"
     inkscape:pageopacity="0"
     inkscape:pageshadow="2"
     inkscape:window-width="1920"
     inkscape:window-height="1053"
     id="namedview3389"
     showgrid="false"
     inkscape:zoom="0.5"
     inkscape:cx="482.02434"
     inkscape:cy="226.99998"
     inkscape:window-x="0"
     inkscape:window-y="0"
     inkscape:window-maximized="1"
     inkscape:current-layer="layer2"
     fit-margin-top="0"
     fit-margin-left="0"
     fit-margin-right="0"
     fit-margin-bottom="0" />
  <g
     inkscape:groupmode="layer"
     id="layer2"
     inkscape:label="Small logo"
     style="display:inline"
     transform="translate(0,918.75)">
    <rect
       style="display:inline;fill:#000000;fill-opacity:1;stroke:none"
       id="rect4361"
       width="1000"
       height="1000"
       x="-4.5069486e-09"
       y="-918.75"
       inkscape:export-xdpi="35.450001"
       inkscape:export-ydpi="35.450001" />
    <path
       style="fill:#ffffff;fill-opacity:1;fill-rule:evenodd;stroke:none;stroke-width:1px;stroke-linecap:butt;stroke-linejoin:miter;stroke-opacity:1"
       d="m 223.65055,-610.73564 c 38.00068,17.73372 54.62899,27.22206 37.83726,61.40452 -16.79173,34.18248 -24.48176,30.55663 -69.79663,8.46633 -45.31489,-22.09029 -58.93481,-27.99634 -41.88983,-62.93495 17.04468,-34.93876 35.84857,-24.66968 73.8492,-6.9359 z"
       id="path3399-3"
       inkscape:connector-curvature="0"
       sodipodi:nodetypes="zzzzz" />
    <path
       style="fill:#ffffff;fill-opacity:1;fill-rule:evenodd;stroke:none;stroke-width:1px;stroke-linecap:butt;stroke-linejoin:miter;stroke-opacity:1"
       d="m 343.53485,-543.59651 c 35.09281,18.79606 50.35835,28.65916 32.65479,60.18204 -17.70353,31.52287 -24.80317,27.68399 -66.60119,4.37604 -41.79803,-23.30791 -54.39926,-29.61819 -36.41612,-61.84455 17.98285,-32.22652 35.26973,-21.50963 70.36252,-2.71353 z"
       id="path3399-3-6"
       inkscape:connector-curvature="0"
       sodipodi:nodetypes="zzzzz"
       inkscape:transform-center-x="0.79574337"
       inkscape:transform-center-y="-1.0447959" />
    <path
       style="display:inline;fill:#ffffff;fill-opacity:1;fill-rule:evenodd;stroke:none;stroke-width:1px;stroke-linecap:butt;stroke-linejoin:miter;stroke-opacity:1"
       d="m 100.71206,-667.29328 c 37.6297,14.95935 54.19283,23.17147 39.92694,57.06744 -14.26587,33.89598 -21.88291,30.83291 -66.808436,12.08494 -44.925537,-18.74796 -58.387214,-23.67584 -43.919695,-58.31498 14.467214,-34.63927 33.171507,-25.79678 70.801191,-10.8374 z"
       id="path3399-3-6-7"
       inkscape:connector-curvature="0"
       sodipodi:nodetypes="zzzzz" />
    <path
       style="display:inline;fill:#ffffff;fill-opacity:1;fill-rule:evenodd;stroke:none;stroke-width:1px;stroke-linecap:butt;stroke-linejoin:miter;stroke-opacity:1"
       d="m 691.90776,-304.49917 c 31.80942,22.58973 45.43926,34.05634 24.35068,62.52907 -21.08856,28.47271 -27.51948,23.86732 -65.29355,-3.93364 -37.77406,-27.80093 -49.25027,-35.48561 -27.80335,-64.60795 21.44664,-29.12251 36.93687,-16.57724 68.74622,6.01252 z"
       id="path3399-3-6-5"
       inkscape:connector-curvature="0"
       sodipodi:nodetypes="zzzzz"
       inkscape:transform-center-x="0.6364067"
       inkscape:transform-center-y="-1.1034514" />
    <path
       style="display:inline;fill:#ffffff;fill-opacity:1;fill-rule:evenodd;stroke:none;stroke-width:1px;stroke-linecap:butt;stroke-linejoin:miter;stroke-opacity:1"
       d="m 796.63859,-218.45575 c 31.47623,26.78707 44.79771,40.15109 19.90401,68.2451 -24.89368,28.09401 -31.25367,22.63793 -68.54171,-10.2014 -37.28805,-32.83932 -48.68715,-42.01259 -23.3551,-70.75895 25.33179,-28.7466 40.51663,-14.07187 71.9928,12.71525 z"
       id="path3399-3-6-3"
       inkscape:connector-curvature="0"
       sodipodi:nodetypes="zzzzz"
       inkscape:transform-center-x="0.56083252"
       inkscape:transform-center-y="-1.2191821" />
    <path
       style="display:inline;fill:#ffffff;fill-opacity:1;fill-rule:evenodd;stroke:none;stroke-width:1px;stroke-linecap:butt;stroke-linejoin:miter;stroke-opacity:1"
       d="m 889.76897,-118.61894 c 26.28699,27.951529 37.20384,41.651565 11.34701,65.012672 -25.85683,23.361083 -31.16382,17.673083 -62.19071,-16.460122 -31.02691,-34.13322 -40.60101,-43.769 -14.27265,-67.6869 26.32813,-23.91817 38.82941,-8.81721 65.11635,19.13435 z"
       id="path3399-3-6-56"
       inkscape:connector-curvature="0"
       sodipodi:nodetypes="zzzzz"
       inkscape:transform-center-x="0.38043471"
       inkscape:transform-center-y="-1.1808711" />
    <path
       style="display:inline;fill:#ffffff;fill-opacity:1;fill-rule:evenodd;stroke:none;stroke-width:1px;stroke-linecap:butt;stroke-linejoin:miter;stroke-opacity:1"
       d="m 931.68267,-62.115412 c -7.58407,0.567631 -15.87803,4.685637 -25.88942,13.293279 -32.03674,27.544184 -20.97203,39.2829164 14.75961,80.817303 35.73163,41.534399 41.83448,48.460836 73.29327,21.562498 2.47233,-2.11392 4.21202,-4.05728 6.15384,-6.057698 l 0,-50.6490329 C 995.24645,-9.4361027 989.42095,-16.21609 982.49998,-23.990404 961.66575,-47.393529 948.36762,-63.36404 931.68267,-62.115412 Z"
       id="path3399-3-6-2"
       inkscape:connector-curvature="0" />
    <path
       style="display:inline;fill:#ffffff;fill-opacity:1;fill-rule:evenodd;stroke:none;stroke-width:1px;stroke-linecap:butt;stroke-linejoin:miter;stroke-opacity:1"
       d="m 0,-716.34617 0,85.4327 c 11.43036,-0.58637 17.833401,-9.06451 26.249999,-29.06249 C 39.663296,-691.84617 28.61162,-703.54313 0,-716.34617 Z"
       id="path3399-3-6-7-1"
       inkscape:connector-curvature="0" />
    <path
       style="fill:#ffffff;fill-opacity:1;fill-rule:evenodd;stroke:none;stroke-width:1px;stroke-linecap:butt;stroke-linejoin:miter;stroke-opacity:1"
       d="m 214.52894,-288.78407 154.37003,-163.45062 23.83655,-57.88876 77.18501,-208.85357 34.05222,22.70148 c 0,0 -56.7537,169.12599 -60.15891,173.66628 -3.40522,4.5403 69.2395,-2.27015 69.2395,-2.27015 l 15.89103,29.51192 39.72758,-2.27015 1.13501,23.83655 36.32237,-1.13501 0,46.53803 165.72076,-144.15438 28.37684,-6.81043 -5.67537,30.64699 38.59252,3.40522 -21.56641,36.32236 -179.34165,143.01929 -7.94551,54.48353 -34.05222,7.94553 -87.40068,232.690111 -53.34846,-1.135015 82.86038,-227.014736 -79.45517,-2.27016 -6.81043,-26.10669 -39.72758,-5.67537 0,-30.64699 -51.07833,-2.27015 -111.23723,105.56186 z"
       id="path4363"
       inkscape:connector-curvature="0" />
  </g>
</svg>
